<?xml version="1.0" standalone="no"?>
<!DOCTYPE svg PUBLIC "-//W3C//DTD SVG 1.1//EN" "http://www.w3.org/Graphics/SVG/1.1/DTD/svg11.dtd" >
<svg xmlns="http://www.w3.org/2000/svg">
<metadata></metadata>
<defs>
<font id="exo_2.0medium" horiz-adv-x="1171" >
<font-face units-per-em="2048" ascent="1638" descent="-410" />
<missing-glyph horiz-adv-x="454" />
<glyph unicode="&#xfb01;" horiz-adv-x="1265" d="M55 846v143l181 10v150q0 159 68.5 239t227.5 80q156 0 240 -14v-147h-170q-93 0 -130.5 -40.5t-37.5 -140.5v-127h670v-999h-197v846h-473v-846h-198v846h-181zM897 1253v115q0 57 59 57h95q57 0 57 -57v-115q0 -59 -57 -59h-95q-59 0 -59 59z" />
<glyph unicode="&#xfb02;" horiz-adv-x="1390" d="M53 846v143l180 10v150q0 159 70 239.5t227 79.5q450 0 596 -24v-1180q0 -63 33 -96t96 -33h95l22 -127q-28 -12 -87 -19t-105 -7q-118 0 -185 62t-67 175v1090h-328q-92 1 -130 -40.5t-38 -142.5v-127h291v-153h-291v-846h-199v846h-180z" />
<glyph horiz-adv-x="0" />
<glyph horiz-adv-x="682" />
<glyph unicode=" "  horiz-adv-x="454" />
<glyph unicode="&#x09;" horiz-adv-x="454" />
<glyph unicode="&#xa0;" horiz-adv-x="454" />
<glyph unicode="!" horiz-adv-x="567" d="M184 811v612h199v-612l-21 -375h-157zM188 74v108q0 40 16 56t56 16h49q40 0 57 -16.5t17 -55.5v-108q0 -41 -17 -57.5t-57 -16.5h-49q-40 0 -56 16.5t-16 57.5z" />
<glyph unicode="&#x22;" horiz-adv-x="733" d="M137 1413h160l-12 -442h-135zM438 1413h160l-12 -442h-135z" />
<glyph unicode="#" horiz-adv-x="1409" d="M84 430l25 125h233l64 354h-236l25 125h231l66 379h157l-65 -379h356l66 379h157l-65 -379h225l-25 -125h-223l-61 -354h223l-25 -125h-221l-73 -430h-158l76 430h-359l-74 -430h-157l76 430h-238zM500 555h356l64 354h-359z" />
<glyph unicode="$" horiz-adv-x="1157" d="M113 1065q0 98 19 165t52 108t93.5 63t128.5 29.5t172 7.5h22l14 196h103l-15 -200q174 -7 302 -39l-13 -150q-180 8 -303 8l-35 -454l117 -33q158 -43 222.5 -139t64.5 -262q0 -98 -18.5 -166t-53 -112t-95.5 -68.5t-134.5 -34t-182.5 -9.5l-18 -231h-104l18 233 q-172 8 -338 39l14 158q261 -6 340 -8l37 463l-129 35q-151 42 -215.5 138.5t-64.5 262.5zM319 1059q0 -71 19 -113.5t54 -63.5t100 -38l59 -17l35 428q-48 0 -76 -1t-60.5 -5t-50 -12t-35.5 -22t-26.5 -35t-13.5 -51t-5 -70zM588 166q154 0 207 39t53 162q0 57 -9 94 t-32 61t-51 36.5t-76 25.5l-57 16z" />
<glyph unicode="%" horiz-adv-x="1835" d="M90 1020q0 229 74.5 324.5t259.5 95.5t259.5 -95.5t74.5 -324.5q0 -228 -75 -324t-259 -96t-259 96t-75 324zM242 1020q0 -168 39 -232.5t141 -64.5q105 0 143.5 64t38.5 233q0 168 -38.5 232.5t-143.5 64.5q-102 0 -141 -65t-39 -232zM393 0l903 1413h140l-904 -1413 h-139zM1077 399q0 228 75 324t259 96q183 0 257.5 -96t74.5 -324q0 -229 -74.5 -324t-257.5 -95q-185 0 -259.5 95t-74.5 324zM1229 399q-2 -168 37 -232.5t143 -64.5t143 64.5t39 232.5q0 169 -39 232t-143 63t-142.5 -63t-37.5 -232z" />
<glyph unicode="&#x26;" horiz-adv-x="1576" d="M131 358q0 170 64.5 264t214.5 107v8q-128 12 -183 92t-55 238q0 70 10.5 123.5t29.5 93t53.5 66.5t73.5 44t99 26t122 12.5t149 3.5q183 0 327 -23l-24 -153q-85 6 -310 6q-79 0 -128 -5t-89.5 -18t-61.5 -39t-31.5 -65.5t-10.5 -100.5q0 -135 55 -182t203 -47h369 l16 252h166v-252h250v-156h-250v-370q0 -71 28 -100t97 -29h145l23 -146q-91 -26 -223 -26q-103 0 -166 43.5t-82 124.5q-91 -94 -198 -133.5t-267 -39.5q-226 0 -321 85t-95 296zM348 393q0 -137 52.5 -187t197.5 -50q256 3 406 147v350h-377q-159 0 -219 -54.5t-60 -205.5 z" />
<glyph unicode="'" horiz-adv-x="432" d="M137 1413h160l-12 -442h-135z" />
<glyph unicode="(" horiz-adv-x="737" d="M104 639q0 400 132.5 637.5t416.5 341.5l25 -92q-198 -95 -289.5 -314t-91.5 -571q0 -346 91.5 -566t289.5 -321l-25 -92q-284 105 -416.5 342.5t-132.5 634.5z" />
<glyph unicode=")" horiz-adv-x="737" d="M59 -246q198 101 289.5 321t91.5 566q0 352 -91.5 571t-289.5 314l25 92q284 -104 417.5 -342t133.5 -637q0 -397 -133.5 -634t-417.5 -343z" />
<glyph unicode="*" horiz-adv-x="921" d="M102 1124l39 111l240 -94v-51l-25 -33zM209 821l209 262l-17 332h119l-20 -332l209 -264l-95 -69l-155 254l-154 -252zM537 1090v51l243 94l37 -113l-254 -65z" />
<glyph unicode="+" horiz-adv-x="1126" d="M111 539v147h374v358h152v-358h377v-147h-377v-357h-150v357h-376z" />
<glyph unicode="," horiz-adv-x="475" d="M133 63v119q3 40 20.5 56t57.5 16h57q39 0 54.5 -16t15.5 -56v-131q-3 -181 -78 -325l-94 24q22 116 22 250q-26 0 -40.5 17t-14.5 46z" />
<glyph unicode="-" horiz-adv-x="905" d="M141 442v152h623v-152h-623z" />
<glyph unicode="." horiz-adv-x="477" d="M133 74v108q0 40 16.5 56t57.5 16h63q41 0 57.5 -16t16.5 -56v-108q0 -41 -16.5 -57.5t-57.5 -16.5h-63q-41 0 -57.5 16.5t-16.5 57.5z" />
<glyph unicode="/" horiz-adv-x="1069" d="M51 -137l805 1550h162l-805 -1550h-162z" />
<glyph unicode="0" horiz-adv-x="1243" d="M125 707q0 395 111.5 564t384.5 169q139 0 233 -40.5t152.5 -131.5t84 -226.5t25.5 -334.5q0 -159 -16 -276.5t-51.5 -206t-94 -143t-140.5 -81.5t-193 -27q-273 0 -384.5 169.5t-111.5 564.5zM326 707q0 -208 27 -326.5t90 -173.5t175 -55q169 0 234.5 123.5t65.5 431.5 t-65.5 431.5t-234.5 123.5q-112 0 -175 -55t-90 -173.5t-27 -326.5z" />
<glyph unicode="1" horiz-adv-x="823" d="M41 1270l354 143h205v-1413h-205v1094q0 68 11 127l-340 -105z" />
<glyph unicode="2" horiz-adv-x="1153" d="M111 0v129q0 56 30 86l394 444q135 146 197 254t59 203q-3 87 -61 114t-189 27q-194 0 -408 -30l-12 159q233 52 438 52q86 0 149.5 -7.5t120.5 -27.5t92 -54.5t55.5 -89.5t20.5 -131q0 -131 -53 -240.5t-192 -264.5l-394 -433q108 9 226 9h463v-199h-936z" />
<glyph unicode="3" horiz-adv-x="1140" d="M104 10l13 166q238 -20 389 -20q166 0 233.5 57t67.5 203q0 61 -11 103t-39 76t-81.5 50.5t-134.5 16.5h-260v159h260q62 1 106.5 14.5t69 34t38.5 54t17.5 64t3.5 75.5q-2 65 -14.5 103.5t-47 59.5t-81.5 27.5t-131 6.5q-157 0 -361 -17l-14 160q209 37 405 37 q236 0 338.5 -72.5t102.5 -255.5q0 -151 -46.5 -242.5t-160.5 -113.5v-8q132 -22 186.5 -110t57.5 -245q3 -220 -100.5 -320t-352.5 -100q-188 0 -453 37z" />
<glyph unicode="4" horiz-adv-x="1267" d="M92 567l391 846h201l-381 -831q-17 -40 -2.5 -60t51.5 -20h451v409l37 230h157v-639h185v-146l-185 -20v-336h-194v336h-567q-93 0 -137 72.5t-7 158.5z" />
<glyph unicode="5" horiz-adv-x="1101" d="M100 27l25 166q190 -35 356 -35q95 0 156.5 16t94 52t45 81.5t14.5 116.5q1 37 -1 67t-11.5 55t-17.5 43.5t-29.5 34t-36 26t-50 19t-57.5 13.5t-71.5 10.5t-80.5 8.5t-96 8l-107 10q-34 2 -55 26.5t-20 61.5l32 606h760l-8 -176h-586l-20 -352l160 -15 q272 -23 384 -123.5t111 -322.5q0 -74 -10.5 -134t-41 -120.5t-80 -101.5t-133.5 -67t-196 -26q-198 0 -430 52z" />
<glyph unicode="6" horiz-adv-x="1175" d="M131 680q0 123 8 221t26 174.5t42 133t61 97t77 66t95.5 40.5t112.5 20.5t131 5.5q176 0 293 -31l-16 -150q-107 7 -277 7q-98 0 -157 -16.5t-104 -67.5t-64.5 -144.5t-24.5 -247.5q71 77 149.5 107.5t194.5 30.5q222 0 305.5 -102.5t83.5 -360.5q0 -95 -10 -164 t-39 -133.5t-78.5 -104t-131 -63t-194.5 -23.5q-103 0 -176 13.5t-128 48.5t-88.5 85.5t-54.5 133.5t-28.5 182t-7.5 242zM332 643q0 -90 2 -148.5t8.5 -116t19.5 -90.5t33 -62.5t51 -43.5t72 -22t98 -8q67 0 113.5 13.5t74.5 36.5t43 64.5t20 85.5t5 111q0 166 -51.5 231.5 t-195.5 65.5q-83 0 -148 -25.5t-145 -91.5z" />
<glyph unicode="7" horiz-adv-x="1052" d="M76 1413h805q66 0 92.5 -35.5t7.5 -97.5l-436 -1280h-205l387 1130q20 62 47 109h-690z" />
<glyph unicode="8" horiz-adv-x="1243" d="M135 352q0 174 53 269t181 108v8q-103 12 -152 97t-49 227q0 102 20 169t70.5 115t139 69.5t223.5 21.5q137 -1 225 -22t139 -69.5t70.5 -115t19.5 -168.5q0 -142 -49 -227t-152 -97v-8q127 -13 180.5 -108.5t53.5 -268.5q0 -101 -21 -167t-75 -114.5t-149 -70.5 t-242 -23q-144 -1 -239 21t-149.5 70.5t-76 116t-21.5 167.5zM328 397q0 -141 59.5 -192t235.5 -51q120 0 181.5 23.5t84 73.5t22.5 146q0 80 -11.5 126.5t-44.5 76.5t-86.5 40.5t-143.5 10.5q-93 -1 -148 -12t-90 -41t-47 -76.5t-12 -124.5zM354 1040q0 -135 53.5 -180 t217.5 -45q86 0 136 9.5t79.5 37t39 67.5t9.5 111q0 68 -10.5 109.5t-40.5 70t-81 39.5t-134 11q-110 0 -167.5 -22t-79.5 -69.5t-22 -138.5z" />
<glyph unicode="9" horiz-adv-x="1175" d="M109 948q-2 254 103.5 372t354.5 118q79 0 139.5 -8t109 -27.5t83 -46t60 -71.5t41 -95t24.5 -125t12.5 -154t3.5 -188q-1 -158 -14 -274t-43 -199.5t-71 -136.5t-106 -84t-139.5 -42.5t-179.5 -11.5q-184 0 -313 31l16 152q98 -6 295 -6q101 0 163.5 20t106.5 74.5 t63 146t24 238.5q-74 -80 -153 -112t-197 -32q-383 0 -383 461zM303 948q-2 -153 51.5 -225t192.5 -72q84 0 148 26.5t147 96.5q0 80 -1.5 131t-6 105.5t-12.5 86.5t-22 64t-34 49t-49 30.5t-66 18.5t-86 5q-81 0 -134 -19.5t-81 -62.5t-38 -97.5t-9 -136.5z" />
<glyph unicode=":" horiz-adv-x="495" d="M135 74v108q0 40 16 56t56 16h65q41 0 57.5 -16t16.5 -56v-108q0 -41 -16.5 -57.5t-57.5 -16.5h-65q-40 0 -56 16.5t-16 57.5zM135 723v111q0 40 16 55.5t56 15.5h65q41 0 57.5 -15.5t16.5 -55.5v-111q0 -40 -16.5 -56t-57.5 -16h-65q-40 0 -56 16t-16 56z" />
<glyph unicode=";" horiz-adv-x="497" d="M145 723v111q0 40 16.5 55.5t57.5 15.5h64q41 0 57 -15.5t16 -55.5v-111q0 -40 -16 -56t-57 -16h-64q-41 0 -57.5 16t-16.5 56zM147 63v119q1 40 18.5 56t57.5 16h58q39 0 54 -16t15 -56v-131q-3 -181 -78 -325l-92 24q21 126 21 250q-26 0 -40.5 17t-13.5 46z" />
<glyph unicode="&#x3c;" horiz-adv-x="1081" d="M104 532v156l838 354v-157l-668 -275l668 -268v-158z" />
<glyph unicode="=" horiz-adv-x="1198" d="M145 311v148h906v-148h-906zM145 743v148h906v-148h-906z" />
<glyph unicode="&#x3e;" horiz-adv-x="1081" d="M139 184v158l668 268l-668 275v157l838 -354v-156z" />
<glyph unicode="?" horiz-adv-x="1032" d="M78 1415q21 3 75.5 12.5t78.5 13t73 8.5t103.5 7t126.5 2q210 0 313.5 -77.5t103.5 -239.5q0 -62 -19.5 -116.5t-51.5 -96.5t-70.5 -82.5t-77.5 -82.5t-71.5 -87.5t-54.5 -107t-25 -132.5h-168q-2 76 15 143t45.5 116t63 93t70 82t65 74t48.5 77.5t20 84.5 q5 94 -55.5 139t-193.5 45q-198 0 -404 -18zM399 74v108q0 40 16.5 56t57.5 16h49q41 0 57.5 -16t16.5 -56v-108q0 -41 -16.5 -57.5t-57.5 -16.5h-49q-41 0 -57.5 16.5t-16.5 57.5z" />
<glyph unicode="@" horiz-adv-x="1480" d="M145 547q0 93 2 159.5t8.5 130.5t16 107t28 83t40 64.5t57 46.5t74 33t95 19t117 11t142.5 3h297q157 0 236 -70.5t79 -230.5v-633h-147l-21 154q-63 -66 -170 -118t-223 -52q-124 0 -197 64.5t-73 185.5v102q0 102 59.5 157.5t175.5 55.5h410v78q0 82 -35.5 112.5 t-132.5 30.5h-256q-99 0 -150.5 -3t-104 -20.5t-73 -45t-39 -87.5t-22.5 -135.5t-4 -201.5q0 -99 2 -163.5t13.5 -122.5t21 -90.5t41 -59.5t56.5 -38.5t83.5 -19.5t107 -9t140.5 -1h534v-147q-334 -19 -532 -19q-117 -1 -197.5 2.5t-152.5 17.5t-116.5 33t-81.5 58.5t-56 84 t-32 119t-16.5 155t-3.5 200.5zM690 539q0 -68 31.5 -97.5t93.5 -29.5q85 0 179 33.5t157 93.5v159l-340 -8q-69 -3 -95 -26t-26 -82v-43z" />
<glyph unicode="A" horiz-adv-x="1282" d="M18 0l443 1358q16 55 76 55h208q27 0 47.5 -14.5t26.5 -40.5l445 -1358h-211l-131 426h-564l-131 -426h-209zM414 604h454l-166 537q-5 19 -17 57t-17 57h-56l-32 -114z" />
<glyph unicode="B" horiz-adv-x="1273" d="M172 0v1413q176 17 471 17q135 0 221.5 -16.5t145 -59t82.5 -113t24 -180.5q0 -154 -56.5 -233t-182.5 -91v-8q153 -13 217.5 -106.5t64.5 -270.5q0 -110 -24.5 -180.5t-81 -112.5t-139 -58.5t-209.5 -16.5q-346 0 -533 16zM373 160l301 -2q161 0 219.5 46t58.5 183 q0 155 -61.5 209.5t-228.5 56.5h-289v-493zM373 811h286q148 0 204.5 46.5t56.5 178.5q0 130 -61.5 174.5t-225.5 44.5h-260v-444z" />
<glyph unicode="C" d="M121 707q0 205 29 342t96.5 225t172 126t261.5 38q131 0 214.5 -9t176.5 -32l-20 -158q-164 16 -371 16q-132 0 -205.5 -51t-106 -168.5t-32.5 -328.5q0 -127 11 -217t35 -155.5t65 -103.5t97 -55.5t136 -17.5q258 0 399 22l21 -155q-173 -50 -420 -50 q-209 0 -329.5 71.5t-175 229.5t-54.5 431z" />
<glyph unicode="D" horiz-adv-x="1361" d="M172 0v1413q285 19 510 19q105 0 184.5 -15.5t143 -50.5t106.5 -90t71.5 -137t41 -187.5t12.5 -244.5t-12.5 -244.5t-41 -187.5t-71.5 -137t-106.5 -90t-143 -50.5t-184.5 -15.5q-240 0 -510 18zM377 166q132 -6 305 -6q99 0 163 27t104.5 92.5t57.5 167.5t17 260 q0 209 -32.5 326t-105.5 168.5t-204 51.5q-62 0 -162.5 -1t-142.5 -1v-1085z" />
<glyph unicode="E" horiz-adv-x="1150" d="M160 250v913q2 117 78 185.5t206 68.5q421 0 607 -16l-11 -160h-561q-62 0 -87 -29.5t-25 -101.5v-283h596v-165h-596v-361q0 -72 25 -101.5t87 -29.5h561l11 -158q-186 -16 -607 -16q-131 0 -206.5 68t-77.5 186z" />
<glyph unicode="F" horiz-adv-x="1105" d="M168 0v1153q0 125 76.5 194.5t208.5 69.5q405 0 585 -18l-10 -158h-524q-71 0 -101 -29.5t-30 -101.5v-305h577v-166h-577v-639h-205z" />
<glyph unicode="G" horiz-adv-x="1288" d="M121 713q0 172 20.5 293t63 206.5t115.5 134.5t169.5 71t233.5 22q222 0 393 -43l-20 -156q-172 16 -361 16q-79 0 -132.5 -7.5t-101 -29t-76 -59.5t-49.5 -101t-29.5 -150.5t-8.5 -211.5q0 -305 62.5 -425.5t220.5 -120.5q92 0 169.5 32.5t163.5 91.5v539h201v-815h-151 l-21 143q-74 -70 -181 -120t-239 -50q-233 0 -337.5 178t-104.5 562z" />
<glyph unicode="H" horiz-adv-x="1372" d="M172 0v1413h205v-571h618v571h205v-1413h-205v666h-618v-666h-205z" />
<glyph unicode="I" horiz-adv-x="548" d="M172 0v1413h205v-1413h-205z" />
<glyph unicode="J" horiz-adv-x="702" d="M57 8l23 148h100q152 0 152 143v1114h205v-1104q0 -161 -72 -245q-70 -82 -201 -82h-6q-121 0 -201 26z" />
<glyph unicode="K" horiz-adv-x="1222" d="M172 0v1413h205v-434q0 -83 -15 -160h160l416 594h223l-399 -577q-35 -51 -86 -99v-6q57 -49 98 -106l414 -625h-227l-439 653h-160q15 -92 15 -145v-508h-205z" />
<glyph unicode="L" horiz-adv-x="1054" d="M168 274v1139h205v-1110q0 -72 29 -101.5t100 -29.5h502l10 -158q-198 -18 -545 -18q-301 0 -301 278z" />
<glyph unicode="M" horiz-adv-x="1804" d="M145 0l54 1329q2 40 23.5 62t60.5 22h227q64 0 86 -70l240 -827q26 -95 47 -190h37q19 91 49 192l237 825q22 70 90 70h224q39 0 60.5 -22t23.5 -62l57 -1329h-205l-49 1243h-41l-287 -1005q-18 -70 -88 -70h-178q-72 0 -90 70l-289 1005h-39l-47 -1243h-203z" />
<glyph unicode="N" horiz-adv-x="1449" d="M172 0v1333q0 80 78 80h188q61 0 90 -63l428 -938q90 -189 99 -211h30q-10 123 -10 219v993h203v-1333q0 -80 -76 -80h-194q-62 0 -88 63l-441 963q-72 152 -84 197h-28q10 -83 10 -197v-1026h-205z" />
<glyph unicode="O" horiz-adv-x="1370" d="M121 707q0 211 29 349t97 225t173 123t264 36q213 0 334 -68.5t176 -226t55 -438.5t-55 -439t-176 -226.5t-334 -68.5q-212 0 -332.5 68.5t-175.5 227t-55 438.5zM336 707q0 -213 32.5 -330.5t107 -169t208.5 -51.5q135 0 210 51.5t107.5 169t32.5 330.5q0 160 -17 263 t-58.5 168.5t-107 92t-167.5 26.5q-101 0 -166 -26.5t-106.5 -92t-58.5 -168.5t-17 -263z" />
<glyph unicode="P" horiz-adv-x="1212" d="M172 0v1413q185 19 492 19q134 0 219.5 -20.5t141.5 -73t78.5 -136.5t22.5 -217q0 -134 -22 -219t-76 -137t-134 -72t-206 -20q-153 0 -311 18v-555h-205zM377 713h282q102 1 156.5 24.5t79.5 81t25 166.5q0 159 -55.5 214.5t-205.5 55.5q-204 0 -282 -2v-540z" />
<glyph unicode="Q" horiz-adv-x="1374" d="M121 707q0 211 29 349t98 225t173.5 123t264.5 36q213 0 334 -68.5t176 -226t55 -438.5t-55 -439t-176 -226.5t-334 -68.5q-212 0 -333 68.5t-176.5 227t-55.5 438.5zM338 707q0 -213 32.5 -330.5t107 -169t208.5 -51.5t209 51.5t108 169.5t33 330t-33 330t-107.5 169 t-209.5 51q-101 0 -166 -26.5t-106.5 -92t-58.5 -168.5t-17 -263zM545 -209l55 125q238 -94 559 -139l-65 -205q-261 56 -549 219z" />
<glyph unicode="R" horiz-adv-x="1269" d="M172 0v1413q185 19 494 19q128 0 213.5 -19.5t144 -67t84 -126t25.5 -197.5q0 -169 -61 -255t-200 -105v-11q59 -17 108 -68t71 -137l133 -446h-219l-121 440q-24 76 -67 109t-111 33l-291 2v-584h-203zM375 758h287q151 2 207.5 54.5t56.5 197.5q0 144 -56 194.5 t-208 50.5q-209 0 -287 -2v-495z" />
<glyph unicode="S" horiz-adv-x="1153" d="M109 1065q0 82 11.5 141.5t38.5 101t61.5 67t91 39.5t116 19t145.5 5q250 0 426 -43l-12 -150q-297 10 -405 10q-48 0 -76 -1t-60.5 -5t-50 -12t-35.5 -22t-26.5 -35t-13.5 -51t-5 -70q0 -104 37.5 -147t132.5 -68l281 -78q158 -43 222.5 -139t64.5 -262 q0 -98 -18.5 -166t-52.5 -112t-95 -68.5t-134.5 -34t-181.5 -9.5q-226 0 -444 41l14 152q320 -10 434 -10q83 1 130.5 8.5t81 30.5t45.5 63t12 107q0 57 -9.5 94t-32.5 61t-50.5 36.5t-75.5 25.5l-287 80q-151 42 -215.5 138.5t-64.5 262.5z" />
<glyph unicode="T" horiz-adv-x="1196" d="M49 1231v182h1100v-182h-449v-1231h-206v1231h-445z" />
<glyph unicode="U" horiz-adv-x="1363" d="M162 545v868h205v-868q0 -218 69 -303.5t246 -85.5q174 0 244.5 86t70.5 303v868h205v-868q0 -311 -116 -441.5t-396 -130.5q-289 0 -408.5 130t-119.5 442z" />
<glyph unicode="V" horiz-adv-x="1253" d="M31 1413h211l319 -1100q18 -65 39 -155h55q9 45 39 155l318 1100h211l-418 -1356q-8 -25 -29.5 -41t-48.5 -16h-201q-27 0 -48 16t-29 41z" />
<glyph unicode="W" horiz-adv-x="1947" d="M61 1413h218l202 -1077q10 -52 25 -180h47q9 77 31 180l202 1010q6 30 27 48.5t51 18.5h219q29 0 50.5 -18.5t27.5 -48.5l201 -1012q19 -95 31 -178h47q5 28 13 88t13 88l203 1081h217l-270 -1354q-8 -27 -29 -43t-51 -16h-227q-30 0 -52 16.5t-28 44.5l-205 1039 q-24 128 -29 160h-43q-3 -18 -9 -51t-11 -59.5t-10 -49.5l-203 -1039q-4 -27 -27 -44t-53 -17h-229q-29 0 -50.5 16.5t-27.5 42.5z" />
<glyph unicode="X" horiz-adv-x="1259" d="M45 0l389 731l-362 682h221l309 -602h53l310 602h221l-363 -682l389 -731h-223l-336 655h-49l-336 -655h-223z" />
<glyph unicode="Y" horiz-adv-x="1175" d="M18 1413h218l284 -579q21 -42 62 -164h14q42 124 61 161l285 582h213l-465 -924v-489h-205v492z" />
<glyph unicode="Z" horiz-adv-x="1163" d="M98 0v174l731 1065h-720v174h944v-174l-729 -1065h743v-174h-969z" />
<glyph unicode="[" horiz-adv-x="679" d="M182 -219v1673q0 52 33 85.5t86 33.5h297v-129h-199q-13 0 -21.5 -9.5t-8.5 -23.5v-1587q0 -14 8.5 -23.5t21.5 -9.5h199v-129h-297q-119 0 -119 119z" />
<glyph unicode="\" horiz-adv-x="1071" d="M51 1413h164l805 -1550h-164z" />
<glyph unicode="]" horiz-adv-x="679" d="M82 -209h197q15 0 23.5 9.5t8.5 23.5v1587q0 14 -8.5 23.5t-23.5 9.5h-197v129h297q53 0 86 -33.5t33 -85.5v-1673q0 -53 -33 -86t-86 -33h-297v129z" />
<glyph unicode="^" horiz-adv-x="886" d="M61 803l312 436h143l309 -436l-80 -49l-292 354h-17l-295 -354z" />
<glyph unicode="_" horiz-adv-x="1179" d="M141 0h897v-150h-897v150z" />
<glyph unicode="`" horiz-adv-x="659" d="M51 1335l111 152l362 -299l-65 -92z" />
<glyph unicode="a" horiz-adv-x="1128" d="M100 264v105q0 120 74 184.5t209 64.5h401v78q-2 93 -43 127.5t-155 34.5q-112 0 -424 -24l-19 145q265 47 486 47q181 0 267.5 -74t86.5 -256v-696h-156l-22 158q-70 -72 -173 -124t-226 -52q-139 0 -222.5 74t-83.5 208zM301 289q0 -73 35 -106t110 -33t166 34.5 t172 104.5v180h-364q-66 -3 -92.5 -34.5t-26.5 -92.5v-53z" />
<glyph unicode="b" horiz-adv-x="1173" d="M150 47v1387h198v-359q0 -137 -20 -227q169 178 377 178q187 0 274.5 -122.5t87.5 -399.5q0 -132 -21.5 -225.5t-72 -164t-139 -105t-218.5 -34.5q-111 0 -241.5 19t-224.5 53zM348 172q121 -31 264 -31q136 2 192.5 82t57.5 281q-1 103 -10 165.5t-34.5 106.5t-69 61 t-113.5 17q-69 0 -132.5 -33.5t-154.5 -105.5v-543z" />
<glyph unicode="c" horiz-adv-x="1005" d="M106 500q0 289 108 407.5t370 118.5q200 0 331 -51l-26 -127q-153 10 -271 10q-117 0 -181 -31.5t-94 -108.5t-30 -218t30 -218t94 -109t181 -32q162 0 295 23l19 -133q-151 -56 -348 -56q-263 0 -370.5 118t-107.5 407z" />
<glyph unicode="d" horiz-adv-x="1177" d="M109 504q0 194 43 310t124.5 164t212.5 48q189 0 345 -90q-9 99 -9 197v301h199v-1434h-156l-16 137q-192 -162 -393 -162q-184 0 -267 132t-83 397zM313 506q0 -142 22.5 -220.5t67 -108.5t123.5 -30q75 0 134 26.5t165 98.5v533q-68 18 -103.5 26.5t-85.5 15.5t-97 7 q-86 0 -132.5 -27.5t-70 -103t-23.5 -217.5z" />
<glyph unicode="e" horiz-adv-x="1103" d="M106 502q0 197 49.5 312t148.5 163.5t265 48.5q229 0 334 -84t105 -252q0 -138 -60.5 -212.5t-183.5 -74.5h-449q7 -81 27 -132.5t58.5 -80t87.5 -39t126 -10.5q124 0 351 25l18 -131q-68 -30 -180.5 -45t-214.5 -15q-262 0 -372 119.5t-110 407.5zM313 557h398 q98 0 98 133q-2 92 -52.5 130t-176.5 38q-148 0 -205.5 -62.5t-61.5 -238.5z" />
<glyph unicode="f" horiz-adv-x="788" d="M55 846v143l181 10v175q0 146 69 220t227 74q193 0 289 -14l-16 -147h-203q-93 0 -130.5 -35.5t-37.5 -120.5v-152h309v-153h-309v-846h-198v846h-181z" />
<glyph unicode="g" horiz-adv-x="1148" d="M78 -102q0 83 36.5 133t123.5 98q-65 55 -65 142q0 8 1 17q7 99 78 150q-70 36 -100.5 100t-30.5 164q0 176 96 250t340 74q147 0 238 -27h311l-10 -106l-142 -14q35 -68 35 -174q0 -171 -97 -245.5t-337 -74.5q-111 0 -199 16q-19 -30 -21 -62.5t19.5 -59t65.5 -33.5 l368 -58q142 -21 202.5 -88.5t60.5 -195.5q0 -91 -24 -150t-82 -96t-148 -52.5t-230 -15.5q-276 0 -382.5 67t-106.5 241zM270 -86q0 -52 11.5 -81.5t47.5 -47t88.5 -22.5t147.5 -5q176 0 233.5 30t57.5 126q0 70 -31 91.5t-139 37.5l-321 43q-49 -41 -72 -80t-23 -92z M301 705q0 -93 56.5 -131.5t197.5 -38.5q140 0 195 38.5t55 131.5q0 95 -54.5 132t-195.5 37q-143 0 -198.5 -37t-55.5 -132z" />
<glyph unicode="h" horiz-adv-x="1193" d="M154 0v1434h200v-387q0 -102 -14 -195q238 174 436 174q131 0 201 -71t70 -205v-750h-199v692q0 94 -28 130t-99 36q-79 0 -159.5 -34.5t-209.5 -112.5v-711h-198z" />
<glyph unicode="i" horiz-adv-x="520" d="M156 1253v115q0 57 57 57h94q58 0 58 -57v-115q0 -59 -58 -59h-94q-57 0 -57 59zM162 0v999h196v-999h-196z" />
<glyph unicode="j" horiz-adv-x="524" d="M49 -328q60 75 87.5 150t27.5 168v1009h198v-1009q0 -124 -54 -231t-148 -173zM158 1253v115q0 57 59 57h94q58 0 58 -57v-115q0 -59 -58 -59h-94q-59 0 -59 59z" />
<glyph unicode="k" horiz-adv-x="1058" d="M154 0v1434h200v-629q0 -87 -12 -170h123l301 364h229l-301 -362q-26 -37 -73 -74v-4q39 -31 73 -86l334 -473h-229l-332 492h-125q10 -88 10 -156v-336h-198z" />
<glyph unicode="l" horiz-adv-x="618" d="M156 244v1190h198v-1145v-6q0 -121 129 -121h92l23 -154q-28 -12 -86 -19t-104 -7q-117 0 -184.5 68t-67.5 194z" />
<glyph unicode="m" horiz-adv-x="1792" d="M154 0v999h163l11 -153q208 180 401 180q207 0 254 -174q198 174 393 174q131 0 200 -70.5t69 -205.5v-750h-195v692q-2 89 -34.5 127.5t-110.5 38.5q-68 0 -129.5 -30.5t-180.5 -116.5v-711h-190v692q0 90 -35 128t-111 38q-66 0 -127.5 -30t-181.5 -115v-713h-196z" />
<glyph unicode="n" horiz-adv-x="1193" d="M154 0v999h168l12 -153q234 180 442 180q132 0 201.5 -70.5t69.5 -205.5v-750h-199v692q0 94 -28 130t-99 36q-78 0 -156 -34t-213 -115v-709h-198z" />
<glyph unicode="o" horiz-adv-x="1167" d="M106 498q0 288 108.5 408t369.5 120t369 -120t108 -408q0 -286 -108 -405.5t-369 -119.5t-369.5 119.5t-108.5 405.5zM313 498q0 -207 57.5 -283t213.5 -76q155 0 212.5 76t57.5 283q0 210 -57 285t-213 75t-213.5 -75t-57.5 -285z" />
<glyph unicode="p" horiz-adv-x="1196" d="M154 -408v1407h163l15 -153q78 81 192.5 130.5t223.5 49.5q177 0 258 -134t81 -398q0 -191 -43 -306.5t-124.5 -164t-212.5 -48.5q-201 0 -361 101q5 -60 5 -136q0 -32 -1 -67v-281h-196zM350 201q83 -22 114 -29.5t86 -16t103 -8.5q87 0 134.5 27.5t71.5 103.5t24 218 q0 199 -46.5 278.5t-156.5 79.5q-75 0 -149.5 -34.5t-180.5 -110.5v-508z" />
<glyph unicode="q" d="M106 498q0 133 21.5 226.5t72.5 163.5t141 104t222 34q105 0 235.5 -19.5t223.5 -54.5v-1360h-199v328q0 127 17 207q-188 -154 -389 -154q-174 0 -259.5 126.5t-85.5 398.5zM311 483q0 -180 43 -258t164 -78q78 0 143 29t164 96v555q-112 31 -236 31h-28 q-96 -2 -148.5 -35t-77 -112.5t-24.5 -227.5z" />
<glyph unicode="r" horiz-adv-x="827" d="M154 0v999h153l21 -151q222 178 420 178h47l-23 -186h-61q-73 0 -151 -26.5t-208 -88.5v-725h-198z" />
<glyph unicode="s" horiz-adv-x="1042" d="M98 748q0 164 89 222q86 56 292 56h15q233 -4 426 -35l-17 -143q-313 10 -379 10h-61.5t-49.5 -1.5t-41.5 -4.5t-30 -8t-24 -13t-14.5 -20t-10 -27t-2 -36q0 -63 27.5 -85.5t101.5 -43.5l12 -3l283 -69q85 -22 133.5 -53.5t74 -86.5t25.5 -141q0 -74 -17 -125t-48.5 -83 t-87 -50t-120.5 -24.5t-161 -6.5q-210 0 -397 29l14 148q127 -11 342 -11q168 0 225.5 24t57.5 99q0 26 -7 44.5t-15.5 29.5t-30.5 21t-36.5 14.5t-47.5 13.5q-10 3 -15 4l-278 70q-124 32 -176 97t-52 188z" />
<glyph unicode="t" horiz-adv-x="794" d="M51 846v143l182 8v295h197v-293h309v-153h-309v-557q0 -70 29.5 -98.5t101.5 -28.5h146l22 -154q-95 -26 -235 -26q-127 0 -194 72.5t-67 207.5v584h-182z" />
<glyph unicode="u" d="M147 250v749h199v-692v-6q0 -88 31 -122q32 -36 112 -36q69 0 144 31.5t188 101.5v723h197v-999h-158l-14 137q-218 -164 -426 -164q-134 0 -203.5 70.5t-69.5 206.5z" />
<glyph unicode="v" horiz-adv-x="1093" d="M33 999h211l233 -688q20 -60 55 -172h27l59 172l232 688h211l-356 -950q-19 -49 -70 -49h-178q-52 0 -68 49z" />
<glyph unicode="w" horiz-adv-x="1691" d="M47 999h205l192 -720q26 -109 31 -154h27l35 154l147 659q6 28 25.5 44.5t48.5 16.5h178q28 0 48 -17t26 -46l145 -657q4 -23 10 -48.5t13.5 -56.5t11.5 -49h27q14 94 30 154l193 720h205l-281 -944q-16 -55 -76 -55h-178q-28 0 -49 17t-27 46l-145 658q-26 139 -31 160 h-24l-33 -160l-144 -658q-6 -29 -27 -46t-50 -17h-177q-60 0 -73 55z" />
<glyph unicode="x" horiz-adv-x="1091" d="M41 0l328 516l-303 483h213l245 -403h43l244 403h213l-301 -483l328 -516h-215l-271 442h-39l-270 -442h-215z" />
<glyph unicode="y" horiz-adv-x="1091" d="M33 999h213l248 -727q23 -65 34 -122h29q26 71 41 122l246 727h213l-387 -1046q-141 -368 -459 -373l-21 131q117 35 185 96t108 156l15 37h-41q-58 0 -70 51z" />
<glyph unicode="z" horiz-adv-x="1048" d="M98 0v162l625 676h-617v161h836v-161l-623 -676h631v-162h-852z" />
<glyph unicode="{" horiz-adv-x="661" d="M90 602v139q70 23 86 35q27 21 30 86q1 15 1 35v401q0 307 368 275v-125q-102 0 -140 -36.5t-38 -129.5v-354q2 -128 -37 -181t-151 -75q114 -35 154.5 -87t42.5 -161v-473q0 -92 37.5 -128t140.5 -36v-125q-369 -32 -369 275v518q0 69 -22 92.5t-90 49.5q-8 3 -13 5z " />
<glyph unicode="|" horiz-adv-x="509" d="M182 -346v1945h144v-1945h-144z" />
<glyph unicode="}" horiz-adv-x="663" d="M80 -213q103 0 140.5 36t37.5 128v473q2 109 42.5 161t154.5 87q-112 22 -151.5 75t-37.5 181v354q0 93 -38 129.5t-140 36.5v125q192 17 280.5 -54t88.5 -221v-401q0 -60 9.5 -87.5t27 -38t66.5 -26.5q8 -3 13 -4v-139q-73 -29 -89 -43q-35 -29 -35 -104v-518 q0 -150 -88.5 -221t-280.5 -54v125z" />
<glyph unicode="~" horiz-adv-x="1071" d="M154 461q-16 128 29.5 194.5t127.5 63.5q74 -3 221 -57.5t199 -59.5q52 -6 70 18.5t18 88.5h103q15 -125 -30.5 -191.5t-129.5 -60.5q-85 3 -229.5 56t-192.5 58q-52 6 -69 -19t-17 -91h-100z" />
<glyph unicode="&#xa1;" horiz-adv-x="534" d="M168 205l20 375h158l21 -375v-602h-199v602zM170 831v111q0 40 17 57t57 17h49q39 0 55.5 -17t16.5 -57v-111q0 -40 -16 -55.5t-56 -15.5h-49q-40 0 -57 16t-17 55z" />
<glyph unicode="&#xa2;" horiz-adv-x="1040" d="M104 715q0 288 108.5 406t371.5 118h16l16 174h103l-17 -178q126 -14 211 -45l-24 -133q-87 10 -203 14l-61 -715q136 0 286 21l19 -133q-145 -51 -324 -54l-18 -190h-101l19 193q-219 15 -310.5 134.5t-91.5 387.5zM301 715q0 -178 49.5 -257t171.5 -96l60 709 q-158 -6 -219.5 -82.5t-61.5 -273.5z" />
<glyph unicode="&#xa3;" horiz-adv-x="1169" d="M113 686v115h153l-14 264q-5 94 10.5 161t45.5 108t82.5 64.5t111.5 31.5t143 8q152 0 377 -21l-12 -164q-182 7 -361 7q-118 0 -160.5 -41.5t-35.5 -157.5l14 -260h420l-6 -115h-406l8 -139q7 -142 -26 -226.5t-119 -154.5q47 10 139 10h590v-176h-944v176 q99 46 132.5 139.5t25.5 231.5l-9 139h-159z" />
<glyph unicode="&#xa4;" horiz-adv-x="1212" d="M129 340l145 145q-73 103 -73 234q0 135 80 242l-146 145l86 86l144 -145q107 77 241 77q135 0 242 -80l147 148l84 -86l-147 -148q78 -108 78 -239q0 -130 -80 -238l151 -149l-88 -86l-149 149q-104 -80 -238 -80t-239 78l-146 -145zM319 721q0 -119 84.5 -203.5 t202.5 -83.5q114 -2 197.5 83.5t83.5 203.5t-83.5 202.5t-197.5 84.5q-118 0 -202.5 -84t-84.5 -203z" />
<glyph unicode="&#xa5;" horiz-adv-x="1271" d="M68 1413h213l282 -553q14 -28 36.5 -84.5t31.5 -77.5h14q60 154 64 162l282 553h213l-391 -745h283v-117h-346l-11 -23v-92h357v-117h-357v-319h-204v319h-349v117h349v92l-13 23h-334l-4 117h277z" />
<glyph unicode="&#xa6;" horiz-adv-x="514" d="M184 -346v819h144v-819h-144zM184 780v819h144v-819h-144z" />
<glyph unicode="&#xa7;" horiz-adv-x="1116" d="M123 1169q0 83 26 137t82 83t127 40t177 11q246 -4 446 -25l-12 -155q-179 12 -379 12q-55 1 -87.5 0t-68 -6.5t-54.5 -17t-32 -32t-14 -51.5q-1 -65 31.5 -104t99.5 -74l319 -180q99 -53 147.5 -124.5t51.5 -160.5t-22 -203h-144q11 133 -19 207t-124 127l-344 199 q-52 30 -85.5 56t-63.5 63t-44 86t-14 112zM135 -313l17 155q192 -12 380 -14q39 0 62 0.5t53 3t47 7t36 12.5t28.5 20t16.5 29.5t7 40.5q3 44 -15 79.5t-43 56t-67 44.5l-321 178q-99 52 -147.5 122t-52.5 159t20 204h143q-9 -135 20 -206t125 -125l344 -197q50 -29 84 -56 t64 -64.5t44.5 -87.5t14.5 -114q0 -71 -19.5 -121t-52 -79.5t-88 -45.5t-112 -21t-139.5 -5q-251 4 -449 25z" />
<glyph unicode="&#xa8;" horiz-adv-x="845" d="M158 1262v110q0 55 53 55h65q54 0 54 -55v-110q0 -56 -54 -56h-65q-53 0 -53 56zM520 1262v110q0 55 53 55h66q26 0 40.5 -15t14.5 -40v-110q0 -56 -55 -56h-66q-53 0 -53 56z" />
<glyph unicode="&#xa9;" horiz-adv-x="1703" d="M115 707q0 209 98.5 377.5t267 262t371.5 93.5q204 0 372.5 -93.5t266.5 -262t98 -377.5q0 -157 -57.5 -294t-156 -233t-234.5 -151.5t-289 -55.5q-152 0 -288 55.5t-234.5 151.5t-156.5 233t-58 294zM223 707q0 -133 50 -250.5t135 -200t201 -130.5t243 -48 q171 0 315 81t229 226t85 322t-85 322t-228.5 225.5t-315.5 80.5q-128 0 -243.5 -47.5t-200.5 -130t-135 -200t-50 -250.5zM463 711q0 246 89.5 346t309.5 100q158 0 277 -29l-17 -112q-117 8 -262 8q-138 0 -191 -67.5t-53 -245.5t53 -246t191 -68q176 0 285 13l14 -113 q-121 -33 -297 -33q-220 0 -309.5 100.5t-89.5 346.5z" />
<glyph unicode="&#xaa;" horiz-adv-x="903" d="M125 725v78q0 77 51 121.5t143 44.5h291v51q0 50 -28 76t-95 26q-103 0 -315 -16l-16 111q210 30 362 30q121 0 181.5 -52t60.5 -175v-461h-119l-18 123q-52 -56 -127.5 -96.5t-165.5 -40.5q-93 0 -149 47t-56 133zM270 758q0 -48 26 -67t81 -19q54 0 117 26.5t116 67.5 v119l-243 -19q-53 -3 -75 -22t-22 -56v-30z" />
<glyph unicode="&#xab;" horiz-adv-x="1005" d="M88 492v45l328 405l104 -68l-250 -360l252 -367l-104 -69zM469 492v45l328 405l104 -68l-250 -360l252 -367l-104 -69z" />
<glyph unicode="&#xac;" horiz-adv-x="1208" d="M145 535v149h906v-414h-150v265h-756z" />
<glyph unicode="&#xad;" horiz-adv-x="903" d="M141 442v152h623v-152h-623z" />
<glyph unicode="&#xae;" horiz-adv-x="1122" d="M104 983q0 189 133.5 322t323.5 133q189 0 322 -133t133 -322q0 -190 -133 -323.5t-322 -133.5q-125 0 -230 61t-166 166t-61 230zM174 983q0 -162 113.5 -276.5t273.5 -114.5t273.5 114.5t113.5 276.5q0 161 -113.5 275t-273.5 114t-273.5 -114t-113.5 -275zM356 725 v520q72 6 224 6q115 0 163 -32.5t48 -116.5q0 -60 -28 -92t-91 -39v-4q27 -3 48.5 -22.5t31.5 -55.5l59 -164h-96l-53 160q-22 53 -82 53h-134v-213h-90zM446 1004h132q69 2 95 20t25 68q1 54 -24.5 71t-95.5 17h-132v-176z" />
<glyph unicode="&#xaf;" horiz-adv-x="819" d="M121 1241v145h577v-145h-577z" />
<glyph unicode="&#xb0;" horiz-adv-x="735" d="M100 1180q0 106 78.5 183t190.5 77q108 0 188 -76.5t80 -183.5q0 -109 -79.5 -188t-188.5 -79q-110 0 -189.5 79t-79.5 188zM225 1180q0 -64 41.5 -105t102.5 -41q60 0 101.5 41.5t41.5 104.5q0 62 -41 101.5t-102 39.5t-102.5 -39.5t-41.5 -101.5z" />
<glyph unicode="&#xb1;" horiz-adv-x="1200" d="M147 133v148h906v-148h-906zM147 666v147h377v268h152v-268h377v-147h-379v-269h-150v269h-377z" />
<glyph unicode="&#xb2;" horiz-adv-x="888" d="M121 737v86q0 42 24 66l252 244q163 155 168 251q1 51 -36 67.5t-119 16.5q-134 0 -273 -14l-8 117q147 28 291 28q84 0 137.5 -7.5t95.5 -28.5t61 -60.5t19 -101.5q0 -129 -164 -287l-250 -244q58 7 138 4h309v-137h-645z" />
<glyph unicode="&#xb3;" horiz-adv-x="849" d="M117 743l8 115q133 -8 262 -8q108 0 150.5 31t42.5 112q0 60 -35.5 93.5t-134.5 33.5h-174v117h174q50 0 83 11t47 31.5t18.5 39.5t4.5 47q0 63 -36.5 85t-139.5 22q-131 0 -246 -7l-8 113q158 23 279 23q170 0 236.5 -42.5t66.5 -154.5q0 -93 -34.5 -147.5t-121.5 -67.5 v-4q97 -13 136.5 -65t41.5 -148q3 -132 -68.5 -192t-242.5 -60q-129 0 -309 22z" />
<glyph unicode="&#xb4;" horiz-adv-x="657" d="M111 1188l362 299l111 -152l-408 -239z" />
<glyph unicode="&#xb6;" horiz-adv-x="1214" d="M76 922q0 282 144.5 399t484.5 117q191 0 315 -35v-1403h-148v1303q-39 2 -180 8v-1741h-147v842q-251 23 -360 141.5t-109 368.5z" />
<glyph unicode="&#xb7;" horiz-adv-x="495" d="M141 473v111q0 39 17 55t57 16h66q40 0 55.5 -15.5t15.5 -55.5v-111q0 -40 -15.5 -56t-55.5 -16h-66q-40 0 -57 16.5t-17 55.5z" />
<glyph unicode="&#xb8;" horiz-adv-x="483" d="M66 -473l32 104q78 -3 128.5 35t52.5 98q2 33 -22.5 45t-98.5 13l20 92q135 13 190 -13.5t52 -119.5q-3 -134 -102.5 -204t-251.5 -50z" />
<glyph unicode="&#xb9;" horiz-adv-x="606" d="M63 1499l238 86h154v-848h-154v627q0 55 6 84l-223 -57z" />
<glyph unicode="&#xba;" horiz-adv-x="907" d="M115 893q0 195 75.5 274.5t262.5 79.5q189 0 264.5 -79.5t75.5 -274.5q0 -194 -75.5 -272t-264.5 -78q-187 0 -262.5 78t-75.5 272zM268 893q1 -132 41 -179.5t144 -47.5q105 0 144.5 47.5t39.5 179.5q0 134 -39.5 182.5t-144.5 48.5q-104 0 -144 -48.5t-41 -182.5z" />
<glyph unicode="&#xbb;" horiz-adv-x="1005" d="M102 147l252 367l-250 360l107 68l326 -405v-45l-328 -414zM483 147l252 367l-250 360l105 68l328 -405v-45l-330 -414z" />
<glyph unicode="&#xbc;" horiz-adv-x="1775" d="M72 1327l235 86h154v-848h-154v627q0 45 8 84l-225 -57zM285 0l903 1413h139l-903 -1413h-139zM979.5 229.5q-26.5 36.5 1.5 102.5l250 516h149l-239 -492q-8 -18 2 -30.5t33 -12.5h274v236l27 135h118v-371h99v-106l-99 -12v-195h-145v193h-387q-57 0 -83.5 36.5z" />
<glyph unicode="&#xbd;" horiz-adv-x="1822" d="M72 1327l235 86h154v-848h-154v627q0 45 8 84l-225 -57zM268 0l903 1413h140l-901 -1413h-142zM1079 0v86q0 41 25 66l252 243q83 80 124 140t44 112q1 51 -36.5 67.5t-119.5 16.5q-133 0 -272 -14l-9 117q147 28 291 28q167 0 240.5 -39.5t73.5 -158.5q0 -67 -40 -135.5 t-124 -151.5l-252 -244q61 7 137 4h311v-137h-645z" />
<glyph unicode="&#xbe;" horiz-adv-x="1964" d="M111 567l8 115q133 -8 262 -8q108 0 150 31t42 110q0 62 -35.5 95.5t-134.5 33.5l-174 4v107l174 6q50 1 83 12t47.5 31t19 39t4.5 45q0 64 -36.5 86t-139.5 22q-147 0 -246 -6l-8 113q137 20 276 20q172 0 238 -42t66 -152q0 -94 -33.5 -148t-120.5 -67v-4 q97 -13 136.5 -65t41.5 -148q2 -133 -69.5 -192.5t-243.5 -59.5q-127 0 -307 22zM492 0l901 1413h141l-903 -1413h-139zM1154 257q-8 31 13 75l252 516h150l-240 -492q-9 -17 1 -30t32 -13h272v236l27 135h119v-371h102v-106l-102 -12v-195h-146v193h-383q-36 0 -62.5 16.5 t-34.5 47.5z" />
<glyph unicode="&#xbf;" horiz-adv-x="1024" d="M78 -115q0 62 19.5 116.5t51 96.5t70 82.5t77.5 82.5t72 88t55.5 108t25.5 133h165q2 -77 -14.5 -144.5t-44.5 -116.5t-63 -93.5t-70 -82t-64.5 -73.5t-49 -77.5t-21.5 -84.5q-3 -94 57 -139t193 -45q59 0 104.5 0.5t90 3t65 3.5t73 5.5t72.5 5.5l10 -141 q-14 -3 -50 -9.5t-48.5 -9t-43.5 -7.5t-49 -7t-50 -5t-61 -4t-69 -2t-85 -1q-211 0 -314.5 77.5t-103.5 239.5zM436 844v110q0 40 16.5 56t57.5 16h49q40 0 56 -16t16 -56v-110q0 -41 -16 -57.5t-56 -16.5h-49q-41 0 -57.5 16.5t-16.5 57.5z" />
<glyph unicode="&#xc0;" horiz-adv-x="1282" d="M18 0l443 1358q16 55 76 55h208q27 0 47.5 -14.5t26.5 -40.5l445 -1358h-211l-131 426h-564l-131 -426h-209zM274 1726l111 152l363 -299l-66 -92zM414 604h454l-166 537q-5 19 -17 57t-17 57h-56l-32 -114z" />
<glyph unicode="&#xc1;" horiz-adv-x="1282" d="M18 0l443 1358q16 55 76 55h208q27 0 47.5 -14.5t26.5 -40.5l445 -1358h-211l-131 426h-564l-131 -426h-209zM414 604h454l-166 537q-5 19 -17 57t-17 57h-56l-32 -114zM500 1579l362 299l113 -152l-408 -239z" />
<glyph unicode="&#xc2;" horiz-adv-x="1282" d="M18 0l443 1358q16 55 76 55h208q27 0 47.5 -14.5t26.5 -40.5l445 -1358h-211l-131 426h-564l-131 -426h-209zM301 1577l268 264h144l270 -264l-70 -84l-264 197h-16l-266 -197zM414 604h454l-166 537q-5 19 -17 57t-17 57h-56l-32 -114z" />
<glyph unicode="&#xc3;" horiz-adv-x="1282" d="M18 0l443 1358q16 55 76 55h208q27 0 47.5 -14.5t26.5 -40.5l445 -1358h-211l-131 426h-564l-131 -426h-209zM313 1563q-14 123 33 187t127 58q55 -4 107.5 -28.5t103.5 -50t98 -31.5q55 -6 76 17.5t21 82.5h90q15 -119 -30.5 -183.5t-129.5 -58.5q-47 3 -93.5 20 t-77.5 35.5t-70 36t-72 21.5q-54 6 -73.5 -18.5t-19.5 -87.5h-90zM414 604h454l-166 537q-5 19 -17 57t-17 57h-56l-32 -114z" />
<glyph unicode="&#xc4;" horiz-adv-x="1282" d="M18 0l443 1358q16 55 76 55h208q27 0 47.5 -14.5t26.5 -40.5l445 -1358h-211l-131 426h-564l-131 -426h-209zM373 1622v111q0 53 53 53h68q51 0 51 -53v-111q0 -55 -51 -55h-68q-53 0 -53 55zM414 604h454l-166 537q-5 19 -17 57t-17 57h-56l-32 -114zM735 1622v111 q0 53 56 53h65q25 0 39 -14t14 -39v-111q0 -55 -53 -55h-65q-56 0 -56 55z" />
<glyph unicode="&#xc5;" horiz-adv-x="1282" d="M18 0l443 1358q16 55 76 55h208q27 0 47.5 -14.5t26.5 -40.5l445 -1358h-211l-131 426h-564l-131 -426h-209zM414 604h454l-166 537q-5 19 -17 57t-17 57h-56l-32 -114zM418 1679q0 93 65.5 156t157.5 63q93 0 159 -63t66 -156t-66 -155t-159 -62t-158 62t-65 155z M526 1679q0 -54 33 -86t82 -32q51 0 84 32t33 86q0 55 -33 88t-84 33q-50 0 -82.5 -33t-32.5 -88z" />
<glyph unicode="&#xc6;" horiz-adv-x="1873" d="M-8 0l682 1182q73 135 176 184t307 49q398 0 615 -14l-9 -162h-518q-59 0 -95 -37t-36 -100v-275h569v-168h-569v-356q0 -71 30 -101t101 -30h518l9 -160q-195 -16 -609 -16q-108 0 -174.5 71.5t-66.5 182.5v192h-465l-250 -442h-215zM551 612h371v518q0 42 18 83.5 t43 62.5h-18q-56 -32 -111 -125z" />
<glyph unicode="&#xc7;" d="M121 707q0 205 29 342t96.5 225t172 126t261.5 38q131 0 214.5 -9t176.5 -32l-20 -158q-164 16 -371 16q-132 0 -205.5 -51t-106 -168.5t-32.5 -328.5q0 -127 11 -217t35 -155.5t65 -103.5t97 -55.5t136 -17.5q258 0 399 22l21 -155q-173 -50 -420 -50 q-209 0 -329.5 71.5t-175 229.5t-54.5 431zM457 -498l30 105q77 -3 128.5 35t54.5 98q2 32 -23 44t-98 13l20 92q134 13 189.5 -14t52.5 -119q-4 -134 -104 -204t-250 -50z" />
<glyph unicode="&#xc8;" horiz-adv-x="1150" d="M160 250v913q2 117 78 185.5t206 68.5q421 0 607 -16l-11 -160h-561q-62 0 -87 -29.5t-25 -101.5v-283h596v-165h-596v-361q0 -72 25 -101.5t87 -29.5h561l11 -158q-186 -16 -607 -16q-131 0 -206.5 68t-77.5 186zM266 1767l113 152l362 -301l-67 -90z" />
<glyph unicode="&#xc9;" horiz-adv-x="1150" d="M160 250v913q2 117 78 185.5t206 68.5q421 0 607 -16l-11 -160h-561q-62 0 -87 -29.5t-25 -101.5v-283h596v-165h-596v-361q0 -72 25 -101.5t87 -29.5h561l11 -158q-186 -16 -607 -16q-131 0 -206.5 68t-77.5 186zM494 1618l362 301l113 -152l-410 -239z" />
<glyph unicode="&#xca;" horiz-adv-x="1150" d="M160 250v913q2 117 78 185.5t206 68.5q421 0 607 -16l-11 -160h-561q-62 0 -87 -29.5t-25 -101.5v-283h596v-165h-596v-361q0 -72 25 -101.5t87 -29.5h561l11 -158q-186 -16 -607 -16q-131 0 -206.5 68t-77.5 186zM295 1618l268 264h144l268 -264l-68 -86l-264 199h-16 l-267 -199z" />
<glyph unicode="&#xcb;" horiz-adv-x="1150" d="M160 250v913q2 117 78 185.5t206 68.5q421 0 607 -16l-11 -160h-561q-62 0 -87 -29.5t-25 -101.5v-283h596v-165h-596v-361q0 -72 25 -101.5t87 -29.5h561l11 -158q-186 -16 -607 -16q-131 0 -206.5 68t-77.5 186zM367 1661v113q0 53 53 53h65q54 0 54 -53v-113 q0 -53 -54 -53h-65q-53 0 -53 53zM729 1661v113q0 53 55 53h64q26 0 40.5 -14t14.5 -39v-113q0 -53 -55 -53h-64q-29 0 -42 12.5t-13 40.5z" />
<glyph unicode="&#xcc;" horiz-adv-x="548" d="M-94 1726l112 152l363 -299l-66 -92zM172 0v1413h205v-1413h-205z" />
<glyph unicode="&#xcd;" horiz-adv-x="548" d="M133 1579l363 299l112 -152l-407 -239zM172 0v1413h205v-1413h-205z" />
<glyph unicode="&#xce;" horiz-adv-x="548" d="M-66 1577l269 264h143l270 -264l-69 -84l-264 197h-17l-266 -197zM172 0v1413h205v-1413h-205z" />
<glyph unicode="&#xcf;" horiz-adv-x="548" d="M6 1622v111q0 53 53 53h68q51 0 51 -53v-111q0 -55 -51 -55h-68q-28 0 -40.5 13t-12.5 42zM172 0v1413h205v-1413h-205zM369 1622v111q0 53 55 53h65q25 0 39.5 -14t14.5 -39v-111q0 -55 -54 -55h-65q-29 0 -42 13t-13 42z" />
<glyph unicode="&#xd0;" horiz-adv-x="1372" d="M45 692v113h137v608q285 19 510 19q157 0 260.5 -35.5t171 -121.5t96.5 -222.5t29 -345.5t-29 -345.5t-96.5 -222.5t-171 -121.5t-260.5 -35.5q-240 0 -510 18v692h-137zM385 166q135 -6 307 -6q99 0 163 27t104.5 92.5t57.5 167.5t17 260q0 209 -32.5 326t-105.5 168.5 t-204 51.5q-63 0 -163.5 -1t-143.5 -1v-446h299v-113h-299v-526z" />
<glyph unicode="&#xd1;" horiz-adv-x="1449" d="M172 0v1333q0 80 78 80h188q61 0 90 -63l428 -938q90 -189 99 -211h30q-10 123 -10 219v993h203v-1333q0 -80 -76 -80h-194q-62 0 -88 63l-441 963q-72 152 -84 197h-28q10 -83 10 -197v-1026h-205zM412 1563q-14 123 32.5 187t126.5 58q54 -4 107.5 -28.5t105 -50 t99.5 -31.5q54 -6 74 17.5t20 82.5h90q15 -119 -30.5 -183.5t-129.5 -58.5q-47 3 -93.5 20t-77.5 35.5t-69.5 36t-70.5 21.5q-55 6 -74.5 -18.5t-19.5 -87.5h-90z" />
<glyph unicode="&#xd2;" horiz-adv-x="1370" d="M121 707q0 211 29 349t97 225t173 123t264 36q213 0 334 -68.5t176 -226t55 -438.5t-55 -439t-176 -226.5t-334 -68.5q-212 0 -332.5 68.5t-175.5 227t-55 438.5zM315 1726l113 152l360 -299l-65 -92zM336 707q0 -213 32.5 -330.5t107 -169t208.5 -51.5q135 0 210 51.5 t107.5 169t32.5 330.5q0 160 -17 263t-58.5 168.5t-107 92t-167.5 26.5q-101 0 -166 -26.5t-106.5 -92t-58.5 -168.5t-17 -263z" />
<glyph unicode="&#xd3;" horiz-adv-x="1370" d="M121 707q0 211 29 349t97 225t173 123t264 36q213 0 334 -68.5t176 -226t55 -438.5t-55 -439t-176 -226.5t-334 -68.5q-212 0 -332.5 68.5t-175.5 227t-55 438.5zM336 707q0 -213 32.5 -330.5t107 -169t208.5 -51.5q135 0 210 51.5t107.5 169t32.5 330.5q0 160 -17 263 t-58.5 168.5t-107 92t-167.5 26.5q-101 0 -166 -26.5t-106.5 -92t-58.5 -168.5t-17 -263zM543 1579l362 299l111 -152l-408 -239z" />
<glyph unicode="&#xd4;" horiz-adv-x="1370" d="M121 707q0 211 29 349t97 225t173 123t264 36q213 0 334 -68.5t176 -226t55 -438.5t-55 -439t-176 -226.5t-334 -68.5q-212 0 -332.5 68.5t-175.5 227t-55 438.5zM336 707q0 -213 32.5 -330.5t107 -169t208.5 -51.5q135 0 210 51.5t107.5 169t32.5 330.5q0 160 -17 263 t-58.5 168.5t-107 92t-167.5 26.5q-101 0 -166 -26.5t-106.5 -92t-58.5 -168.5t-17 -263zM344 1577l266 264h146l268 -264l-68 -84l-266 197h-16l-264 -197z" />
<glyph unicode="&#xd5;" horiz-adv-x="1370" d="M121 707q0 211 29 349t97 225t173 123t264 36q213 0 334 -68.5t176 -226t55 -438.5t-55 -439t-176 -226.5t-334 -68.5q-212 0 -332.5 68.5t-175.5 227t-55 438.5zM336 707q0 -213 32.5 -330.5t107 -169t208.5 -51.5q135 0 210 51.5t107.5 169t32.5 330.5q0 160 -17 263 t-58.5 168.5t-107 92t-167.5 26.5q-101 0 -166 -26.5t-106.5 -92t-58.5 -168.5t-17 -263zM354 1563q-14 123 33.5 187t128.5 58q66 -5 159.5 -54t149.5 -56q55 -6 76 17.5t21 82.5h90q13 -119 -32.5 -183.5t-129.5 -58.5q-47 3 -93.5 20t-77.5 35.5t-69.5 36t-70.5 21.5 q-55 6 -75 -18.5t-20 -87.5h-90z" />
<glyph unicode="&#xd6;" horiz-adv-x="1370" d="M121 707q0 211 29 349t97 225t173 123t264 36q213 0 334 -68.5t176 -226t55 -438.5t-55 -439t-176 -226.5t-334 -68.5q-212 0 -332.5 68.5t-175.5 227t-55 438.5zM336 707q0 -213 32.5 -330.5t107 -169t208.5 -51.5q135 0 210 51.5t107.5 169t32.5 330.5q0 160 -17 263 t-58.5 168.5t-107 92t-167.5 26.5q-101 0 -166 -26.5t-106.5 -92t-58.5 -168.5t-17 -263zM416 1622v111q0 53 51 53h68q53 0 53 -53v-111q0 -29 -12.5 -42t-40.5 -13h-68q-51 0 -51 55zM778 1622v111q0 53 53 53h66q26 0 40.5 -14t14.5 -39v-111q0 -55 -55 -55h-66 q-28 0 -40.5 13t-12.5 42z" />
<glyph unicode="&#xd7;" horiz-adv-x="991" d="M86 864l731 -657l96 117l-729 657z" />
<glyph unicode="&#xd8;" horiz-adv-x="1370" d="M121 707q0 211 29 349t97 225t173 123t264 36q161 0 262 -35l62 133l104 -41l-65 -141q108 -76 155 -230.5t47 -418.5q0 -281 -55 -439t-176 -226.5t-334 -68.5q-162 0 -266 39l-64 -133l-102 43l65 141q-104 75 -150 229.5t-46 414.5zM336 707q0 -315 78 -437l448 955 q-65 32 -178 32q-101 0 -166 -26.5t-106.5 -92t-58.5 -168.5t-17 -263zM502 193q70 -37 182 -37q135 0 210 51.5t107.5 169t32.5 330.5q0 328 -84 444z" />
<glyph unicode="&#xd9;" horiz-adv-x="1363" d="M162 545v868h205v-868q0 -218 69 -303.5t246 -85.5q174 0 244.5 86t70.5 303v868h205v-868q0 -311 -116 -441.5t-396 -130.5q-289 0 -408.5 130t-119.5 442zM315 1726l113 152l363 -299l-66 -92z" />
<glyph unicode="&#xda;" horiz-adv-x="1363" d="M162 545v868h205v-868q0 -218 69 -303.5t246 -85.5q174 0 244.5 86t70.5 303v868h205v-868q0 -311 -116 -441.5t-396 -130.5q-289 0 -408.5 130t-119.5 442zM543 1579l362 299l113 -152l-408 -239z" />
<glyph unicode="&#xdb;" horiz-adv-x="1363" d="M162 545v868h205v-868q0 -218 69 -303.5t246 -85.5q174 0 244.5 86t70.5 303v868h205v-868q0 -311 -116 -441.5t-396 -130.5q-289 0 -408.5 130t-119.5 442zM344 1577l268 264h144l270 -264l-70 -84l-264 197h-16l-266 -197z" />
<glyph unicode="&#xdc;" horiz-adv-x="1363" d="M162 545v868h205v-868q0 -218 69 -303.5t246 -85.5q174 0 244.5 86t70.5 303v868h205v-868q0 -311 -116 -441.5t-396 -130.5q-289 0 -408.5 130t-119.5 442zM416 1622v111q0 53 53 53h66q53 0 53 -53v-111q0 -29 -12.5 -42t-40.5 -13h-66q-28 0 -40.5 13t-12.5 42z M778 1622v111q0 53 56 53h63q26 0 40.5 -14t14.5 -39v-111q0 -55 -55 -55h-63q-29 0 -42.5 13t-13.5 42z" />
<glyph unicode="&#xdd;" horiz-adv-x="1175" d="M18 1413h218l284 -579q21 -42 62 -164h14q42 124 61 161l285 582h213l-465 -924v-489h-205v492zM446 1579l363 299l111 -152l-408 -239z" />
<glyph unicode="&#xde;" horiz-adv-x="1216" d="M172 0v1149v264h205v-250q78 4 289 4q134 0 218.5 -20.5t140.5 -73.5t78.5 -138.5t22.5 -221.5q0 -135 -22 -221t-76 -138t-134 -72t-206 -20q-124 0 -311 17v-279h-205zM377 438h282q103 1 157 24t79 81.5t25 169.5q0 166 -55 222t-206 56q-204 0 -282 -2v-551z" />
<glyph unicode="&#xdf;" horiz-adv-x="1392" d="M53 844v155h180v117q0 93 21 158.5t57.5 105.5t98 62.5t129.5 30.5t166 8q259 0 364 -61t105 -220q0 -81 -35.5 -141.5t-137.5 -126.5q-27 -17 -65 -39t-55.5 -33t-36.5 -28t-26 -35t-7 -43q0 -19 7 -35t14.5 -26.5t29.5 -24t34.5 -20t47.5 -23.5l203 -97 q95 -46 134.5 -103.5t39.5 -164.5q0 -86 -22 -141.5t-71 -86.5t-113.5 -43t-162.5 -12q-140 0 -325 23l12 150q137 -11 272 -11q53 1 83.5 3t59.5 9.5t43 21.5t22.5 37.5t8.5 59.5q0 30 -6.5 50t-28 38t-37.5 27t-61 31l-207 98q-165 79 -165 234q0 32 5.5 58.5t21 50 t27 38.5t40 35.5t42.5 29.5t51.5 31.5t51.5 30.5q72 46 98.5 81.5t26.5 92.5q0 41 -20 66t-81.5 41t-172.5 16q-165 0 -223 -45t-58 -180v-1094h-199v844h-180z" />
<glyph unicode="&#xe0;" horiz-adv-x="1128" d="M100 264v105q0 120 74 184.5t209 64.5h401v78q-2 93 -43 127.5t-155 34.5q-112 0 -424 -24l-19 145q265 47 486 47q181 0 267.5 -74t86.5 -256v-696h-156l-22 158q-70 -72 -173 -124t-226 -52q-139 0 -222.5 74t-83.5 208zM184 1360l111 151l362 -301l-65 -90zM301 289 q0 -73 35 -106t110 -33t166 34.5t172 104.5v180h-364q-66 -3 -92.5 -34.5t-26.5 -92.5v-53z" />
<glyph unicode="&#xe1;" horiz-adv-x="1128" d="M100 264v105q0 120 74 184.5t209 64.5h401v78q-2 93 -43 127.5t-155 34.5q-112 0 -424 -24l-19 145q265 47 486 47q181 0 267.5 -74t86.5 -256v-696h-156l-22 158q-70 -72 -173 -124t-226 -52q-139 0 -222.5 74t-83.5 208zM301 289q0 -73 35 -106t110 -33t166 34.5 t172 104.5v180h-364q-66 -3 -92.5 -34.5t-26.5 -92.5v-53zM412 1210l362 301l111 -151l-408 -240z" />
<glyph unicode="&#xe2;" horiz-adv-x="1128" d="M100 264v105q0 120 74 184.5t209 64.5h401v78q-2 93 -43 127.5t-155 34.5q-112 0 -424 -24l-19 145q265 47 486 47q181 0 267.5 -74t86.5 -256v-696h-156l-22 158q-70 -72 -173 -124t-226 -52q-139 0 -222.5 74t-83.5 208zM211 1210l268 265h144l270 -265l-70 -86 l-264 199h-16l-267 -199zM301 289q0 -73 35 -106t110 -33t166 34.5t172 104.5v180h-364q-66 -3 -92.5 -34.5t-26.5 -92.5v-53z" />
<glyph unicode="&#xe3;" horiz-adv-x="1128" d="M100 264v105q0 120 74 184.5t209 64.5h401v78q-2 93 -43 127.5t-155 34.5q-112 0 -424 -24l-19 145q265 47 486 47q181 0 267.5 -74t86.5 -256v-696h-156l-22 158q-70 -72 -173 -124t-226 -52q-139 0 -222.5 74t-83.5 208zM223 1196q-14 122 33 186t127 58 q54 -4 107 -28.5t104.5 -49.5t99.5 -31q53 -7 73.5 17t20.5 82h91q15 -118 -30.5 -182t-129.5 -58q-47 3 -93.5 20t-77.5 35t-69.5 35.5t-70.5 22.5q-55 6 -75 -19.5t-20 -87.5h-90zM301 289q0 -73 35 -106t110 -33t166 34.5t172 104.5v180h-364q-66 -3 -92.5 -34.5 t-26.5 -92.5v-53z" />
<glyph unicode="&#xe4;" horiz-adv-x="1128" d="M100 264v105q0 120 74 184.5t209 64.5h401v78q-2 93 -43 127.5t-155 34.5q-112 0 -424 -24l-19 145q265 47 486 47q181 0 267.5 -74t86.5 -256v-696h-156l-22 158q-70 -72 -173 -124t-226 -52q-139 0 -222.5 74t-83.5 208zM285 1253v111q0 55 51 55h67q54 0 54 -55v-111 q0 -55 -54 -55h-67q-51 0 -51 55zM301 289q0 -73 35 -106t110 -33t166 34.5t172 104.5v180h-364q-66 -3 -92.5 -34.5t-26.5 -92.5v-53zM647 1253v111q0 55 53 55h66q55 0 55 -55v-111q0 -55 -55 -55h-66q-53 0 -53 55z" />
<glyph unicode="&#xe5;" horiz-adv-x="1128" d="M100 264v105q0 120 74 184.5t209 64.5h401v78q-2 93 -43 127.5t-155 34.5q-112 0 -424 -24l-19 145q265 47 486 47q181 0 267.5 -74t86.5 -256v-696h-156l-22 158q-70 -72 -173 -124t-226 -52q-139 0 -222.5 74t-83.5 208zM301 289q0 -73 35 -106t110 -33t166 34.5 t172 104.5v180h-364q-66 -3 -92.5 -34.5t-26.5 -92.5v-53zM330 1313q0 92 65 155.5t158 63.5q91 0 157 -63.5t66 -155.5q0 -93 -65 -156t-158 -63q-94 0 -158.5 63t-64.5 156zM436 1313q0 -54 33 -86.5t84 -32.5q49 0 82 32.5t33 86.5t-33 86.5t-82 32.5q-52 0 -84.5 -32 t-32.5 -87z" />
<glyph unicode="&#xe6;" horiz-adv-x="1781" d="M100 264v105q0 120 74 184.5t209 64.5h401v78q0 93 -41.5 127.5t-156.5 34.5q-112 0 -424 -24l-19 145q265 47 486 47q206 0 286 -92q106 92 332 92q227 0 331.5 -84t104.5 -252q2 -139 -61 -213t-190 -74h-439q7 -81 26.5 -132.5t58 -80t87.5 -39t125 -10.5 q129 0 350 25l19 -131q-66 -30 -179 -45t-214 -15q-174 0 -278 50t-154 161q-29 -34 -68 -66.5t-93.5 -65t-124 -52.5t-142.5 -20q-139 0 -222.5 74t-83.5 208zM301 289q0 -73 35 -106t110 -33q79 0 175 37.5t178 113.5q-14 89 -17 168h-362q-66 -3 -92.5 -34.5t-26.5 -92.5 v-53zM989 557h387q109 0 109 133q0 91 -51.5 129.5t-178.5 38.5q-148 0 -205 -62.5t-61 -238.5z" />
<glyph unicode="&#xe7;" horiz-adv-x="1005" d="M106 500q0 289 108 407.5t370 118.5q200 0 331 -51l-26 -127q-153 10 -271 10q-117 0 -181 -31.5t-94 -108.5t-30 -218t30 -218t94 -109t181 -32q162 0 295 23l19 -133q-151 -56 -348 -56q-263 0 -370.5 118t-107.5 407zM360 -498l31 105q77 -3 128 34.5t54 98.5 q2 32 -22.5 44t-97.5 13l20 92q134 13 189.5 -14t52.5 -119q-4 -134 -104 -204t-251 -50z" />
<glyph unicode="&#xe8;" horiz-adv-x="1103" d="M106 502q0 197 49.5 312t148.5 163.5t265 48.5q229 0 334 -84t105 -252q0 -138 -60.5 -212.5t-183.5 -74.5h-449q7 -81 27 -132.5t58.5 -80t87.5 -39t126 -10.5q124 0 351 25l18 -131q-68 -30 -180.5 -45t-214.5 -15q-262 0 -372 119.5t-110 407.5zM207 1360l110 151 l363 -301l-66 -90zM313 557h398q98 0 98 133q-2 92 -52.5 130t-176.5 38q-148 0 -205.5 -62.5t-61.5 -238.5z" />
<glyph unicode="&#xe9;" horiz-adv-x="1103" d="M106 502q0 197 49.5 312t148.5 163.5t265 48.5q229 0 334 -84t105 -252q0 -138 -60.5 -212.5t-183.5 -74.5h-449q7 -81 27 -132.5t58.5 -80t87.5 -39t126 -10.5q124 0 351 25l18 -131q-68 -30 -180.5 -45t-214.5 -15q-262 0 -372 119.5t-110 407.5zM313 557h398 q98 0 98 133q-2 92 -52.5 130t-176.5 38q-148 0 -205.5 -62.5t-61.5 -238.5zM434 1210l361 301l112 -151l-407 -240z" />
<glyph unicode="&#xea;" horiz-adv-x="1103" d="M106 502q0 197 49.5 312t148.5 163.5t265 48.5q229 0 334 -84t105 -252q0 -138 -60.5 -212.5t-183.5 -74.5h-449q7 -81 27 -132.5t58.5 -80t87.5 -39t126 -10.5q124 0 351 25l18 -131q-68 -30 -180.5 -45t-214.5 -15q-262 0 -372 119.5t-110 407.5zM233 1210l269 265h143 l270 -265l-69 -86l-264 199h-17l-266 -199zM313 557h398q98 0 98 133q-2 92 -52.5 130t-176.5 38q-148 0 -205.5 -62.5t-61.5 -238.5z" />
<glyph unicode="&#xeb;" horiz-adv-x="1103" d="M106 502q0 197 49.5 312t148.5 163.5t265 48.5q229 0 334 -84t105 -252q0 -138 -60.5 -212.5t-183.5 -74.5h-449q7 -81 27 -132.5t58.5 -80t87.5 -39t126 -10.5q124 0 351 25l18 -131q-68 -30 -180.5 -45t-214.5 -15q-262 0 -372 119.5t-110 407.5zM307 1253v111 q0 55 51 55h68q53 0 53 -55v-111q0 -55 -53 -55h-68q-51 0 -51 55zM313 557h398q98 0 98 133q-2 92 -52.5 130t-176.5 38q-148 0 -205.5 -62.5t-61.5 -238.5zM670 1253v111q0 55 53 55h65q25 0 39.5 -14.5t14.5 -40.5v-111q0 -55 -54 -55h-65q-53 0 -53 55z" />
<glyph unicode="&#xec;" horiz-adv-x="522" d="M-106 1360l112 151l363 -301l-66 -90zM162 0v999h198v-999h-198z" />
<glyph unicode="&#xed;" horiz-adv-x="522" d="M121 1210l362 301l113 -151l-408 -240zM162 0v999h198v-999h-198z" />
<glyph unicode="&#xee;" horiz-adv-x="522" d="M-78 1210l268 265h144l270 -265l-69 -86l-265 199h-16l-266 -199zM162 0v999h198v-999h-198z" />
<glyph unicode="&#xef;" horiz-adv-x="522" d="M-6 1253v111q0 55 53 55h68q51 0 51 -55v-111q0 -55 -51 -55h-68q-53 0 -53 55zM162 0v999h198v-999h-198zM356 1253v111q0 55 56 55h65q25 0 39 -14.5t14 -40.5v-111q0 -55 -53 -55h-65q-56 0 -56 55z" />
<glyph unicode="&#xf0;" horiz-adv-x="1148" d="M109 446q0 237 97 355.5t322 118.5q154 0 269 -68q-38 202 -152 313l-153 -121l-70 86l129 103q-122 60 -307 53l22 144q242 13 422 -91l156 125l71 -90l-133 -102q244 -217 244 -692q0 -117 -12 -205.5t-43 -166.5t-82.5 -128t-132.5 -78.5t-191 -28.5 q-235 0 -345.5 113.5t-110.5 359.5zM315 449q0 -169 59 -239.5t193 -70.5q55 0 95.5 12.5t68 39.5t45 62t27 89.5t13 111t3.5 136.5q0 84 -4 123q-110 39 -254 39q-135 0 -190.5 -74.5t-55.5 -228.5z" />
<glyph unicode="&#xf1;" horiz-adv-x="1193" d="M154 0v999h168l12 -153q234 180 442 180q132 0 201.5 -70.5t69.5 -205.5v-750h-199v692q0 94 -28 130t-99 36q-78 0 -156 -34t-213 -115v-709h-198zM283 1196q-14 122 32 186t127 58q55 -4 108 -28.5t104 -49.5t98 -31q55 -7 75.5 17t20.5 82h90q15 -118 -30.5 -182 t-129.5 -58q-47 3 -93.5 20t-77.5 35t-70 35.5t-72 22.5q-53 6 -72.5 -19.5t-19.5 -87.5h-90z" />
<glyph unicode="&#xf2;" horiz-adv-x="1167" d="M106 498q0 288 108.5 408t369.5 120t369 -120t108 -408q0 -286 -108 -405.5t-369 -119.5t-369.5 119.5t-108.5 405.5zM213 1360l113 151l362 -301l-65 -90zM313 498q0 -207 57.5 -283t213.5 -76q155 0 212.5 76t57.5 283q0 210 -57 285t-213 75t-213.5 -75t-57.5 -285z " />
<glyph unicode="&#xf3;" horiz-adv-x="1167" d="M106 498q0 288 108.5 408t369.5 120t369 -120t108 -408q0 -286 -108 -405.5t-369 -119.5t-369.5 119.5t-108.5 405.5zM313 498q0 -207 57.5 -283t213.5 -76q155 0 212.5 76t57.5 283q0 210 -57 285t-213 75t-213.5 -75t-57.5 -285zM440 1210l363 301l112 -151l-407 -240z " />
<glyph unicode="&#xf4;" horiz-adv-x="1167" d="M106 498q0 288 108.5 408t369.5 120t369 -120t108 -408q0 -286 -108 -405.5t-369 -119.5t-369.5 119.5t-108.5 405.5zM242 1210l268 265h143l271 -265l-70 -86l-264 199h-17l-266 -199zM313 498q0 -207 57.5 -283t213.5 -76q155 0 212.5 76t57.5 283q0 210 -57 285 t-213 75t-213.5 -75t-57.5 -285z" />
<glyph unicode="&#xf5;" horiz-adv-x="1167" d="M106 498q0 288 108.5 408t369.5 120t369 -120t108 -408q0 -286 -108 -405.5t-369 -119.5t-369.5 119.5t-108.5 405.5zM254 1196q-14 122 32.5 186t127.5 58q55 -4 107.5 -28.5t103.5 -49.5t98 -31q55 -7 75.5 17t20.5 82h90q15 -119 -30 -182.5t-129 -57.5 q-47 3 -93.5 20t-78 35t-70.5 35.5t-72 22.5q-53 6 -72.5 -19.5t-19.5 -87.5h-90zM313 498q0 -207 57.5 -283t213.5 -76q155 0 212.5 76t57.5 283q0 210 -57 285t-213 75t-213.5 -75t-57.5 -285z" />
<glyph unicode="&#xf6;" horiz-adv-x="1167" d="M106 498q0 288 108.5 408t369.5 120t369 -120t108 -408q0 -286 -108 -405.5t-369 -119.5t-369.5 119.5t-108.5 405.5zM313 498q0 -207 57.5 -283t213.5 -76q155 0 212.5 76t57.5 283q0 210 -57 285t-213 75t-213.5 -75t-57.5 -285zM313 1253v111q0 55 54 55h67 q51 0 51 -55v-111q0 -55 -51 -55h-67q-54 0 -54 55zM676 1253v111q0 55 55 55h66q25 0 39 -14.5t14 -40.5v-111q0 -55 -53 -55h-66q-55 0 -55 55z" />
<glyph unicode="&#xf7;" horiz-adv-x="1161" d="M127 530v148h907v-148h-907zM481 195v92q0 41 15.5 57t56.5 16h51q40 0 56 -16t16 -57v-92q0 -41 -16 -56.5t-56 -15.5h-51q-41 0 -56.5 15.5t-15.5 56.5zM481 915v95q0 41 15.5 57t56.5 16h51q40 0 56 -16t16 -57v-95q0 -39 -16 -54t-56 -15h-51q-41 0 -56.5 14.5 t-15.5 54.5z" />
<glyph unicode="&#xf8;" horiz-adv-x="1167" d="M106 498q0 288 108.5 408t369.5 120q96 0 178 -16l67 145l89 -43l-62 -135q108 -52 156.5 -167t48.5 -312q0 -286 -108 -405.5t-369 -119.5q-103 0 -187 19l-71 -152l-88 43l65 144q-103 52 -150 166t-47 305zM313 498q0 -225 72 -297l301 649q-39 8 -102 8 q-156 0 -213.5 -75t-57.5 -285zM471 152q50 -13 113 -13q155 0 212.5 76t57.5 283q0 124 -18 197t-60 112z" />
<glyph unicode="&#xf9;" d="M147 250v749h199v-692q-1 -92 31 -128t112 -36q69 0 144 31.5t188 101.5v723h197v-999h-158l-14 137q-218 -164 -426 -164q-134 0 -203.5 70.5t-69.5 206.5zM223 1368l113 152l360 -299l-65 -93z" />
<glyph unicode="&#xfa;" d="M147 250v749h199v-692q-1 -92 31 -128t112 -36q69 0 144 31.5t188 101.5v723h197v-999h-158l-14 137q-218 -164 -426 -164q-134 0 -203.5 70.5t-69.5 206.5zM451 1221l362 299l111 -152l-408 -240z" />
<glyph unicode="&#xfb;" d="M147 250v749h199v-692q-1 -92 31 -128t112 -36q69 0 144 31.5t188 101.5v723h197v-999h-158l-14 137q-218 -164 -426 -164q-134 0 -203.5 70.5t-69.5 206.5zM250 1219l268 264h144l270 -264l-68 -84l-266 196h-16l-265 -196z" />
<glyph unicode="&#xfc;" d="M147 250v749h199v-692q-1 -92 31 -128t112 -36q69 0 144 31.5t188 101.5v723h197v-999h-158l-14 137q-218 -164 -426 -164q-134 0 -203.5 70.5t-69.5 206.5zM324 1264v110q0 53 51 53h67q54 0 54 -53v-110q0 -56 -54 -56h-67q-51 0 -51 56zM686 1264v110q0 53 53 53h66 q26 0 40.5 -14t14.5 -39v-110q0 -56 -55 -56h-66q-53 0 -53 56z" />
<glyph unicode="&#xfd;" horiz-adv-x="1091" d="M33 999h213l248 -727q23 -65 34 -122h29q26 71 41 122l246 727h213l-387 -1046q-141 -368 -459 -373l-21 131q117 35 185 96t108 156l15 37h-41q-58 0 -70 51zM410 1210l362 301l113 -151l-410 -240z" />
<glyph unicode="&#xfe;" horiz-adv-x="1179" d="M154 -408v1842h198v-334q0 -139 -8 -209q170 133 365 133q194 0 277 -126t83 -406q0 -195 -39.5 -309t-118 -162t-209.5 -48q-189 0 -356 86q6 -61 6 -186v-281h-198zM352 207q177 -70 285 -70q126 0 176.5 77t50.5 280q0 140 -23 219t-69 111t-127 32 q-66 0 -135.5 -32.5t-157.5 -96.5v-520z" />
<glyph unicode="&#xff;" horiz-adv-x="1091" d="M33 999h213l248 -727q23 -65 34 -122h29q26 71 41 122l246 727h213l-387 -1046q-141 -368 -459 -373l-21 131q117 35 185 96t108 156l15 37h-41q-58 0 -70 51zM283 1253v111q0 55 53 55h65q54 0 54 -55v-111q0 -55 -54 -55h-65q-53 0 -53 55zM645 1253v111q0 55 55 55h64 q55 0 55 -55v-111q0 -55 -55 -55h-64q-55 0 -55 55z" />
<glyph unicode="&#x152;" horiz-adv-x="1880" d="M121 707q0 211 29 349t97 225t173 123t264 36q110 0 184 -14.5t164 -49.5q62 41 148 41q414 0 598 -16l-9 -160h-520q-71 0 -101 -29.5t-30 -101.5v-283h572v-168h-572v-358q0 -72 30 -101.5t101 -29.5h520l9 -158q-188 -16 -617 -16q-80 0 -141 45q-81 -38 -154.5 -53 t-181.5 -15q-212 0 -332.5 68.5t-175.5 227t-55 438.5zM336 707q0 -213 32.5 -330.5t107 -169t208.5 -51.5t240 28q-13 47 -13 90v865q0 36 15 90q-123 28 -242 28q-135 0 -209 -50.5t-106.5 -168t-32.5 -331.5z" />
<glyph unicode="&#x153;" horiz-adv-x="1853" d="M106 498q0 288 108.5 408t369.5 120t370 -121q104 121 351 121q450 0 450 -313q1 -169 -70.5 -234t-242.5 -65h-379q6 -85 25 -138.5t57.5 -83t89 -40.5t129.5 -11q125 0 346 25l21 -131q-68 -30 -181.5 -45t-214.5 -15q-268 0 -377 123q-108 -125 -374 -125 q-261 0 -369.5 119.5t-108.5 405.5zM313 498q0 -207 57.5 -283t213.5 -76q146 0 205 67t65 245l-2 57q0 33 2 49q-7 172 -66.5 236.5t-203.5 64.5q-156 0 -213.5 -75t-57.5 -285zM1059 559h371q74 0 102 35t24 121q-6 73 -63.5 108t-181.5 35q-136 0 -191 -64t-61 -235z" />
<glyph unicode="&#x178;" horiz-adv-x="1175" d="M18 1413h218l284 -579q21 -42 62 -164h14q42 124 61 161l285 582h213l-465 -924v-489h-205v492zM319 1622v111q0 53 52 53h67q54 0 54 -53v-111q0 -55 -54 -55h-67q-52 0 -52 55zM682 1622v111q0 53 53 53h66q26 0 40.5 -14t14.5 -39v-111q0 -55 -55 -55h-66 q-28 0 -40.5 13t-12.5 42z" />
<glyph unicode="&#x2c6;" horiz-adv-x="870" d="M98 1198l267 264h145l268 -264l-67 -84l-267 197h-16l-264 -197z" />
<glyph unicode="&#x2dc;" horiz-adv-x="868" d="M106 1192q-14 124 32.5 188t127.5 58q53 -4 106 -29t104.5 -50t98.5 -30q55 -7 76 16t21 82h90q15 -118 -30.5 -181.5t-129.5 -57.5q-60 4 -116.5 29t-106.5 51t-90 32q-53 6 -72.5 -19.5t-19.5 -88.5h-91z" />
<glyph unicode="&#x2000;" horiz-adv-x="959" />
<glyph unicode="&#x2001;" horiz-adv-x="1919" />
<glyph unicode="&#x2002;" horiz-adv-x="959" />
<glyph unicode="&#x2003;" horiz-adv-x="1919" />
<glyph unicode="&#x2004;" horiz-adv-x="639" />
<glyph unicode="&#x2005;" horiz-adv-x="479" />
<glyph unicode="&#x2006;" horiz-adv-x="319" />
<glyph unicode="&#x2007;" horiz-adv-x="319" />
<glyph unicode="&#x2008;" horiz-adv-x="239" />
<glyph unicode="&#x2009;" horiz-adv-x="383" />
<glyph unicode="&#x200a;" horiz-adv-x="106" />
<glyph unicode="&#x2010;" horiz-adv-x="905" d="M141 442v152h623v-152h-623z" />
<glyph unicode="&#x2011;" horiz-adv-x="905" d="M141 442v152h623v-152h-623z" />
<glyph unicode="&#x2012;" horiz-adv-x="905" d="M141 442v152h623v-152h-623z" />
<glyph unicode="&#x2013;" horiz-adv-x="1200" d="M141 442v152h918v-152h-918z" />
<glyph unicode="&#x2014;" horiz-adv-x="1820" d="M141 442v152h1536v-152h-1536z" />
<glyph unicode="&#x2018;" horiz-adv-x="452" d="M127 1073v119q3 169 78 301l92 -25q-21 -114 -21 -229q26 0 40.5 -15.5t13.5 -41.5v-109q-1 -38 -18.5 -52.5t-57.5 -14.5h-57q-40 0 -55 14.5t-15 52.5z" />
<glyph unicode="&#x2019;" horiz-adv-x="446" d="M119 1303v110q3 36 20 51t56 15h57q41 0 56.5 -14.5t15.5 -51.5v-121q-3 -160 -78 -301l-94 25q22 107 22 229q-26 0 -40.5 15.5t-14.5 42.5z" />
<glyph unicode="&#x201a;" horiz-adv-x="475" d="M135 59v111q1 36 19 51t57 15h57q41 0 56.5 -14.5t15.5 -51.5v-121q-3 -163 -78 -301l-94 25q22 123 22 229q-26 0 -40.5 15.5t-14.5 41.5z" />
<glyph unicode="&#x201c;" horiz-adv-x="780" d="M127 1073v119q3 169 78 301l92 -25q-21 -114 -21 -229q26 0 40.5 -15.5t13.5 -41.5v-109q-1 -38 -18.5 -52.5t-57.5 -14.5h-57q-40 0 -55 14.5t-15 52.5zM455 1073v119q3 165 77 301l95 -25q-23 -109 -23 -229q26 0 40.5 -15.5t12.5 -41.5v-109q-1 -38 -18 -52.5 t-57 -14.5h-58q-40 0 -54.5 14.5t-14.5 52.5z" />
<glyph unicode="&#x201d;" horiz-adv-x="774" d="M119 1303v110q3 36 20 51t56 15h57q41 0 56.5 -14.5t15.5 -51.5v-121q-3 -160 -78 -301l-94 25q22 107 22 229q-26 0 -40.5 15.5t-14.5 42.5zM446 1303v110q3 36 20 51t56 15h60q39 0 54 -14.5t15 -51.5v-121q-3 -160 -78 -301l-94 25q23 112 23 229q-26 0 -41 16t-15 42 z" />
<glyph unicode="&#x201e;" horiz-adv-x="802" d="M135 59v111q3 36 20 51t56 15h57q40 0 56 -14.5t16 -51.5v-121q-3 -163 -78 -301l-94 25q22 123 22 229q-26 0 -40.5 15.5t-14.5 41.5zM463 59v111q3 36 20 51t56 15h57q40 0 56 -14.5t16 -51.5v-121q-3 -163 -78 -301l-94 25q22 123 22 229q-26 0 -40.5 15.5t-14.5 41.5 z" />
<glyph unicode="&#x2022;" horiz-adv-x="747" d="M180 539v26q0 98 40.5 137t144.5 39h26q98 0 137 -39t39 -137v-26q0 -104 -39 -144.5t-137 -40.5h-26q-104 0 -144.5 40.5t-40.5 144.5z" />
<glyph unicode="&#x2026;" horiz-adv-x="1761" d="M127 74v108q0 40 16 56t56 16h65q40 0 56 -16t16 -56v-108q0 -41 -16 -57.5t-56 -16.5h-65q-40 0 -56 16.5t-16 57.5zM768 74v108q0 40 16 56t56 16h65q41 0 57.5 -16t16.5 -56v-108q0 -41 -16.5 -57.5t-57.5 -16.5h-65q-40 0 -56 16.5t-16 57.5zM1409 74v108 q0 39 17 55.5t57 16.5h65q40 0 56 -16t16 -56v-108q0 -41 -16 -57.5t-56 -16.5h-65q-40 0 -57 16.5t-17 57.5z" />
<glyph unicode="&#x202f;" horiz-adv-x="383" />
<glyph unicode="&#x2039;" horiz-adv-x="606" d="M80 492v45l328 405l104 -68l-250 -360l252 -367l-104 -69z" />
<glyph unicode="&#x203a;" horiz-adv-x="610" d="M92 147l252 367l-250 360l107 68l327 -405v-45l-329 -414z" />
<glyph unicode="&#x205f;" horiz-adv-x="479" />
<glyph unicode="&#x20ac;" horiz-adv-x="1304" d="M102 528v121h162v58q0 59 2 86h-162v120h170q31 267 164 396t398 129q188 0 342 -41l-21 -162q-164 29 -334 18q-148 -6 -227 -88.5t-104 -251.5h507l-14 -120h-506q0 -14 -1 -44t-1 -47l2 -53h445l-15 -121h-422q21 -185 100.5 -274.5t235.5 -93.5q194 -10 359 22 l22 -157q-155 -50 -368 -50q-272 0 -404.5 135t-159.5 418h-170z" />
<glyph unicode="&#x2122;" horiz-adv-x="1980" d="M133 1309v116h670v-116h-264v-662h-142v662h-264zM899 647l31 723q3 55 53 55h145q40 0 56 -45l143 -432q4 -13 13 -51t16 -59h20q6 19 15.5 56.5t15.5 55.5l139 430q15 45 58 45h147q50 0 53 -55l31 -723h-131l-31 670h-24l-172 -529q-16 -45 -60 -45h-102q-44 0 -60 45 l-172 529h-24l-29 -670h-131z" />
<glyph unicode="&#x25fc;" horiz-adv-x="1003" d="M0 0v1004h1004v-1004h-1004z" />
<glyph unicode="&#xfb03;" horiz-adv-x="1931" d="M55 846v143l162 8v154q0 141 74.5 218t222.5 77q156 0 254 -14l-16 -148h-168q-95 0 -131.5 -32t-36.5 -124v-129h489v150q0 159 69 239t228 80q160 0 244 -14v-147h-174q-93 0 -130.5 -40.5t-37.5 -140.5v-127h668v-999h-197v846h-471v-846h-199v846h-489v-846h-199v846 h-162zM1567 1253v115q0 57 59 57h92q60 0 60 -57v-115q0 -59 -60 -59h-92q-59 0 -59 59z" />
<glyph unicode="&#xfb04;" horiz-adv-x="2080" d="M55 846v143l181 10v152q0 141 74 218t222 77q154 0 252 -14l-16 -148h-166q-96 0 -132 -32t-36 -124v-129h488v150q0 159 70 239.5t227 79.5q450 0 596 -24v-1180q0 -63 33 -96t96 -33h94l22 -127q-28 -12 -87 -19t-105 -7q-118 0 -185 62t-67 175v1090h-326 q-93 1 -130.5 -40t-37.5 -143v-127h291v-153h-291v-846h-200v846h-488v-846h-198v846h-181z" />
</font>
</defs>
</svg>
